<svg xmlns="http://www.w3.org/2000/svg" viewBox="0 0 32 32" width="32" height="32">
  <defs>
    <linearGradient id="d" x1="0.15" y1="0" x2="0.85" y2="1">
      <stop offset="0%" stop-color="#E43B4A"/>
      <stop offset="55%" stop-color="#C92332"/>
      <stop offset="100%" stop-color="#8E1220"/>
    </linearGradient>
    <linearGradient id="s" x1="0.3" y1="0" x2="0.7" y2="1">
      <stop offset="0%" stop-color="#FFFFFF"/>
      <stop offset="100%" stop-color="#F6E9EA"/>
    </linearGradient>
  </defs>
  <circle cx="16" cy="16" r="15.6" fill="url(#d)"/>
  <rect x="3.4" y="12.6" width="3.2" height="6.8" rx="1.6" fill="#FFF3F4" opacity="0.92"/>
  <rect x="25.4" y="12.6" width="3.2" height="6.8" rx="1.6" fill="#FFF3F4" opacity="0.92"/>
  <rect x="6.6" y="8.2" width="18.8" height="16.4" rx="8.2" fill="url(#s)"/>
  <circle cx="12.2" cy="14.9" r="1.55" fill="#210C10"/>
  <circle cx="19.8" cy="14.9" r="1.55" fill="#210C10"/>
  <path d="M16 20.9c-1.55-1-2.45-1.69-2.45-2.52a1.23 1.23 0 0 1 2.45-.37 1.23 1.23 0 0 1 2.45.37c0 .83-.9 1.52-2.45 2.52z" fill="#C92332"/>
</svg>
